# xmcd
#
# Track frame offsets:
#  183
#  17448
#  53370
#  74110
#  87915
#  102290
#  118408
#  141105
#  158685
#  190665
#  206050
#  219473
#  236990
#  257565
#  273615
#  291448
#  307853
#  324405
#
# Disc length: 4547 seconds
#
# Revision: 2
# Processed by: cddbd v1.5.1PL0 Copyright (c) Steve Scherf et al.
# Submitted via: Collectorz.com Music Collector 6.9
#
DISCID=0c11c112
DTITLE=PETER GREEN - Backtrackin'
DYEAR=1989
DGENRE=Blues
TTITLE0=In The Skies
TTITLE1=Fool No More
TTITLE2=Just For You
TTITLE3=Born On The Wild Side
TTITLE4=Shining Star
TTITLE5=Indian Lover
TTITLE6=Carry My Love
TTITLE7=Corner Of My Mind
TTITLE8=Little Dreamer
TTITLE9=Momma Don'tcha Cry 
TTITLE10=Born Under A Bad Sign
TTITLE11=Walkin' The Road
TTITLE12=Loser Two Times
TTITLE13=What Am I Doing Here
TTITLE14=Time For Me To Go
TTITLE15=It's Gonna Be Me
TTITLE16=You Won't See Me Anymore
TTITLE17=Bad Bad Feeling
EXTD=
EXTT0=
EXTT1=
EXTT2=
EXTT3=
EXTT4=
EXTT5=
EXTT6=
EXTT7=
EXTT8=
EXTT9=
EXTT10=
EXTT11=
EXTT12=
EXTT13=
EXTT14=
EXTT15=
EXTT16=
EXTT17=
PLAYORDER=
